<svg width="250" height="250" viewBox="0 0 250 250" fill="none" xmlns="http://www.w3.org/2000/svg">
<path d="M66.5654 11.539L94.6383 60.184C96.0111 62.5516 98.5378 64.0239 101.283 64.0239H148.576C151.321 64.0239 153.868 62.5715 155.241 60.2039L183.353 11.5191C186.318 6.40593 182.617 -0.000488281 176.708 -0.000488281H73.2305C67.3215 0.0194074 63.6209 6.42582 66.5853 11.539H66.5654Z" fill="#F4F4F4"/>
<path d="M195.347 18.2231L167.254 66.8681C165.881 69.2357 165.881 72.1802 167.254 74.5478L190.89 115.513C192.263 117.901 194.79 119.353 197.535 119.353H253.761C259.67 119.353 263.37 112.947 260.406 107.833L208.637 18.2231C205.673 13.1099 198.291 13.1099 195.327 18.2231H195.347Z" fill="#F4F4F4"/>
</svg>
