<svg width="250" height="250" viewBox="0 0 250 250" fill="none" xmlns="http://www.w3.org/2000/svg">
<path d="M66.5654 11.539L94.6383 60.184C96.0111 62.5516 98.5378 64.0239 101.283 64.0239H148.576C151.321 64.0239 153.868 62.5715 155.241 60.2039L183.353 11.5191C186.318 6.40593 182.617 -0.000488281 176.708 -0.000488281H73.2305C67.3215 0.0194074 63.6209 6.42582 66.5853 11.539H66.5654Z" fill="#F4F4F4"/>
<path d="M195.347 18.2231L167.254 66.8681C165.881 69.2357 165.881 72.1802 167.254 74.5478L190.89 115.513C192.263 117.901 194.79 119.353 197.535 119.353H253.761C259.67 119.353 263.37 112.947 260.406 107.833L208.637 18.2231C205.673 13.1099 198.291 13.1099 195.327 18.2231H195.347Z" fill="#F4F4F4"/>
<path d="M253.94 133.123H197.774C195.028 133.123 192.502 134.575 191.129 136.962L167.473 177.908C166.1 180.275 166.1 183.22 167.473 185.588L195.586 234.272C198.55 239.385 205.931 239.385 208.896 234.272C231.8 201.186 243.287 181.674 260.625 144.642C263.589 139.529 259.888 133.123 253.979 133.123H253.94Z" fill="#F4F4F4"/>
<path d="M183.752 241.295L155.679 192.65C154.306 190.282 151.78 188.81 149.034 188.81H101.742C98.9963 188.81 96.4497 190.262 95.0769 192.63L66.9642 241.315C63.9998 246.428 67.7004 252.834 73.6094 252.834H177.087C182.996 252.815 186.697 246.408 183.732 241.295H183.752Z" fill="#F4F4F4"/>
</svg>
