<svg width="16" height="16" viewBox="0 0 16 16" fill="none" xmlns="http://www.w3.org/2000/svg">
<g clip-path="url(#clip0_391_2862)">
<path d="M11.5882 11.2839C13.0802 9.69653 13.9917 7.90397 13.9917 5.99169C13.9917 2.68787 11.3038 0 8 0C4.69619 0 2.00834 2.68788 2.00834 5.99166C2.00834 7.90391 2.91972 9.69644 4.41187 11.2838C2.60253 11.5399 0 12.1475 0 13.5229C0 15.3976 4.86803 16 8 16C11.1309 16 16 15.3972 16 13.5229C16 12.1475 13.3975 11.5399 11.5882 11.2839ZM2.94584 5.99166C2.94584 3.20481 5.21313 0.9375 8 0.9375C10.7869 0.9375 13.0542 3.20481 13.0542 5.99166C13.0542 8.51428 11.1386 10.4415 10.4536 11.0976C9.45278 12.0562 8.43831 12.7143 7.99997 12.98C7.5615 12.7142 6.54712 12.0562 5.54637 11.0976C4.86128 10.4414 2.94584 8.51363 2.94584 5.99166ZM8 15.0625C3.4055 15.0625 0.9375 14.008 0.9375 13.5229C0.9375 13.1954 2.25741 12.4418 5.27369 12.1217C6.55369 13.2628 7.72441 13.9065 7.77556 13.9344C7.9155 14.0107 8.08453 14.0107 8.22444 13.9344C8.27559 13.9065 9.44634 13.2628 10.7264 12.1217C13.8142 12.4495 15.0625 13.2146 15.0625 13.5229C15.0625 14.0211 12.5409 15.0625 8 15.0625Z" fill="#6CB632"/>
<path d="M11.9833 5.99164C11.9833 3.79524 10.1964 2.0083 7.99995 2.0083C5.80354 2.0083 4.0166 3.79524 4.0166 5.99164C4.0166 8.18805 5.80354 9.97496 7.99995 9.97496C10.1964 9.97496 11.9833 8.18805 11.9833 5.99164ZM11.0071 5.50708C11.0324 5.66493 11.0458 5.82674 11.0458 5.99161C11.0458 6.83402 10.702 7.59758 10.1474 8.14952L9.48348 7.23614L9.93101 5.85674L11.0071 5.50708ZM8.4687 2.98186C9.45188 3.13439 10.2811 3.75886 10.7168 4.61568L9.64126 4.96514L8.4687 4.1128V2.98186ZM9.00801 5.66383L8.62323 6.84986H7.37673L6.99195 5.66383L7.99995 4.93105L9.00801 5.66383ZM7.5312 2.98186V4.1128L6.35863 4.96514L5.2831 4.61568C5.71882 3.75886 6.54801 3.13439 7.5312 2.98186ZM5.85254 8.14952C5.29791 7.59758 4.9541 6.83402 4.9541 5.99161C4.9541 5.82674 4.96745 5.66493 4.99279 5.50708L6.06885 5.85674L6.51638 7.23614L5.85254 8.14952ZM7.27476 7.78736H8.72516L9.3896 8.70152C8.97273 8.91618 8.50026 9.03746 7.99998 9.03746C7.4997 9.03746 7.02723 8.91618 6.61035 8.70152L7.27476 7.78736Z" fill="#6CB632"/>
</g>
<defs>
<clipPath id="clip0_391_2862">
<rect width="16" height="16" fill="white"/>
</clipPath>
</defs>
</svg>
