<svg width="13" height="11" viewBox="0 0 13 11" fill="none" xmlns="http://www.w3.org/2000/svg">
<path d="M5.841 7.075C5.841 8.109 5.06 8.901 3.63 9.055V10.144H2.684V9.055C1.485 8.945 0.66 8.428 0.286 8.109L1.111 7.097C1.43 7.383 2.167 7.933 3.168 7.933C4.004 7.933 4.455 7.614 4.455 7.097C4.455 5.491 0.616 6.316 0.616 3.786C0.616 2.708 1.43 1.861 2.684 1.696V0.607H3.63V1.685C5.192 1.861 5.654 2.895 5.786 3.533L4.532 3.841C4.499 3.445 4.103 2.829 3.179 2.829C2.453 2.829 2.002 3.17 2.002 3.72C2.002 5.117 5.841 4.358 5.841 7.075ZM12.593 7.075C12.593 8.109 11.812 8.901 10.382 9.055V10.144H9.43595V9.055C8.23695 8.945 7.41195 8.428 7.03795 8.109L7.86295 7.097C8.18195 7.383 8.91895 7.933 9.91995 7.933C10.756 7.933 11.207 7.614 11.207 7.097C11.207 5.491 7.36795 6.316 7.36795 3.786C7.36795 2.708 8.18195 1.861 9.43595 1.696V0.607H10.382V1.685C11.944 1.861 12.406 2.895 12.538 3.533L11.284 3.841C11.251 3.445 10.855 2.829 9.93095 2.829C9.20495 2.829 8.75395 3.17 8.75395 3.72C8.75395 5.117 12.593 4.358 12.593 7.075Z" fill="#98DE61"/>
</svg>
