<svg width="20" height="20" viewBox="0 0 20 20" fill="none" xmlns="http://www.w3.org/2000/svg">
<path d="M17.7371 13.8446C17.7371 13.8446 12.7161 11.9618 12.7161 11.9618C12.5682 11.9063 12.4688 11.7629 12.4688 11.6048V10.4434C13.6054 9.65746 14.3516 8.34531 14.3516 6.86195V4.35156C14.3516 1.95211 12.3995 0 10 0C7.60055 0 5.64844 1.95211 5.64844 4.35156V6.86199C5.64844 8.34535 6.39465 9.6575 7.53125 10.4434V11.6048C7.53125 11.7629 7.43188 11.9063 7.28391 11.9618C7.28391 11.9618 2.26297 13.8447 2.26293 13.8447C0.909375 14.3521 0 15.6643 0 17.1098V19.4141C0 19.7377 0.262344 20 0.585938 20H19.4141C19.7377 20 20 19.7377 20 19.4141V17.1098C20 15.6643 19.0906 14.3521 17.7371 13.8446ZM10 1.17188C11.3495 1.17188 12.5046 2.01734 12.9654 3.20609C12.8175 3.16219 12.6647 3.13805 12.5104 3.13805C11.8975 3.13805 11.345 3.34379 10.8575 3.52531C10.5255 3.64887 10.212 3.76562 10 3.76562C9.78801 3.76562 9.47445 3.64887 9.1425 3.52527C8.65504 3.34375 8.1025 3.13801 7.48957 3.13801C7.33531 3.13801 7.1825 3.16215 7.03461 3.20605C7.49543 2.01734 8.65047 1.17188 10 1.17188ZM6.82031 6.86199V4.97918C6.82031 4.6727 7.18309 4.30992 7.48957 4.30992C7.89141 4.30992 8.31953 4.46934 8.73355 4.62352C9.16726 4.785 9.57687 4.93754 9.99996 4.93754C10.423 4.93754 10.8327 4.785 11.2664 4.62352C11.6804 4.46934 12.1085 4.30992 12.5104 4.30992C12.8168 4.30992 13.1796 4.6727 13.1796 4.97918V6.86199C13.1796 8.61527 11.7532 10.0417 9.99992 10.0417C8.24664 10.0417 6.82031 8.61527 6.82031 6.86199ZM11.8978 12.8309C11.7448 13.74 10.952 14.4349 10 14.4349C9.04797 14.4349 8.2552 13.74 8.10223 12.8309C8.47332 12.5411 8.70312 12.0898 8.70312 11.6048V11.0162C9.11289 11.1444 9.54852 11.2136 10 11.2136C10.4515 11.2136 10.8871 11.1444 11.2969 11.0162V11.6048C11.2969 12.0898 11.5267 12.5411 11.8978 12.8309ZM1.17188 18.8281V17.1098C1.17188 16.3672 1.5334 15.6776 2.11328 15.2475L3.18746 18.8281H1.17188ZM4.41094 18.8281L3.18738 14.7495L7.01055 13.3159C7.36602 14.6338 8.57125 15.6068 10 15.6068C11.4288 15.6068 12.634 14.6338 12.9895 13.3159L16.8126 14.7495L15.5891 18.8281H4.41094ZM18.8281 18.8281H16.8125L17.8867 15.2475C18.4666 15.6776 18.8281 16.3672 18.8281 17.1098V18.8281Z" fill="#98DE61"/>
</svg>
