<svg width="16" height="16" viewBox="0 0 16 16" fill="none" xmlns="http://www.w3.org/2000/svg">
<g clip-path="url(#clip0_357_2755)">
<path d="M14.5268 3.0125H13.6422L8.22422 0.0572496C8.08431 -0.0190629 7.91519 -0.0190629 7.77531 0.0572496L2.35731 3.0125H1.47266C1.21378 3.0125 1.00391 3.22237 1.00391 3.48125C1.00391 3.74012 1.21378 3.95 1.47266 3.95H2.00806V12.5188C2.00806 12.6903 2.10178 12.8481 2.25234 12.9303L7.77525 15.9428C7.84519 15.9809 7.92244 16 7.99972 16C8.077 16 8.15422 15.9809 8.22419 15.9428L13.7471 12.9303C13.8977 12.8481 13.9914 12.6903 13.9914 12.5188V3.95H14.5268C14.7857 3.95 14.9955 3.74012 14.9955 3.48125C14.9955 3.22237 14.7857 3.0125 14.5268 3.0125ZM7.99975 1.00272L11.6844 3.0125H4.31512L7.99975 1.00272ZM13.0539 12.2405L7.99975 14.9973L2.94559 12.2405V3.95H13.0539V12.2405H13.0539Z" fill="#A4A4A3"/>
<path d="M7.99994 12.9875C10.1964 12.9875 11.9833 11.2006 11.9833 9.00419C11.9833 6.80778 10.1964 5.02084 7.99994 5.02084C5.80354 5.02084 4.0166 6.80778 4.0166 9.00419C4.0166 11.2006 5.80354 12.9875 7.99994 12.9875ZM7.99994 12.05C7.49966 12.05 7.02719 11.9287 6.61032 11.7141L7.27476 10.7999H8.72516L9.3896 11.7141C8.97269 11.9287 8.50023 12.05 7.99994 12.05ZM11.0071 8.51962C11.0324 8.67747 11.0458 8.83928 11.0458 9.00416C11.0458 9.84656 10.702 10.6101 10.1474 11.1621L9.48348 10.2487L9.93101 8.86928L11.0071 8.51962ZM8.46869 5.99441C9.45188 6.14694 10.2811 6.77141 10.7168 7.62822L9.64126 7.97769L8.46869 7.12534V5.99441ZM9.00801 8.67638L8.62323 9.86241H7.37673L6.99195 8.67638L7.99994 7.94359L9.00801 8.67638ZM7.53119 5.99441V7.12534L6.35863 7.97769L5.2831 7.62822C5.71882 6.77141 6.54801 6.14694 7.53119 5.99441ZM4.99282 8.51962L6.06888 8.86928L6.51641 10.2487L5.85254 11.1621C5.29791 10.6101 4.9541 9.84656 4.9541 9.00416C4.9541 8.83928 4.96748 8.67747 4.99282 8.51962Z" fill="#A4A4A3"/>
</g>
<defs>
<clipPath id="clip0_357_2755">
<rect width="16" height="16" fill="white"/>
</clipPath>
</defs>
</svg>
