<svg width="1000" height="1000" viewBox="0 0 1000 1000" fill="none" xmlns="http://www.w3.org/2000/svg">
<mask id="mask0_7_2312" style="mask-type:alpha" maskUnits="userSpaceOnUse" x="0" y="0" width="1000" height="1000">
<circle cx="500" cy="500" r="500" fill="#0F1107"/>
</mask>
<g mask="url(#mask0_7_2312)">
<path d="M-14.5129 478.852H210.149C221.132 478.852 231.239 473.043 236.73 463.493L331.354 299.711C336.845 290.241 336.845 278.463 331.354 268.992L218.904 74.2532C207.046 53.8004 177.52 53.8004 165.663 74.2532L-41.1732 432.774C-53.031 453.227 -38.2286 478.852 -14.5925 478.852H-14.5129Z" fill="#98DE61"/>
<path d="M266.258 46.158L378.55 240.738C384.041 250.208 394.148 256.098 405.13 256.098H594.299C605.281 256.098 615.468 250.288 620.959 240.818L733.41 46.0785C745.267 25.6257 730.465 0 706.829 0H292.919C269.283 0.0795828 254.48 25.7053 266.338 46.158H266.258Z" fill="#98DE61"/>
<path d="M781.398 72.8989L669.027 267.479C663.536 276.949 663.536 288.728 669.027 298.198L763.571 462.059C769.062 471.609 779.169 477.418 790.152 477.418H1015.05C1038.69 477.418 1053.49 451.793 1041.63 431.34L834.559 72.8989C822.701 52.4461 793.176 52.4461 781.318 72.8989H781.398Z" fill="#98DE61"/>
<path d="M1015.76 532.49H791.1C780.118 532.49 770.011 538.3 764.52 547.85L669.896 711.631C664.404 721.102 664.404 732.88 669.896 742.35L782.346 937.09C794.204 957.542 823.729 957.542 835.587 937.09C927.203 804.743 973.153 726.698 1042.5 578.569C1054.36 558.116 1039.56 532.49 1015.92 532.49H1015.76Z" fill="#98DE61"/>
<path d="M735.004 965.179L622.712 770.599C617.221 761.129 607.114 755.24 596.132 755.24H406.963C395.981 755.24 385.794 761.049 380.303 770.52L267.852 965.259C255.995 985.712 270.797 1011.34 294.433 1011.34H708.343C731.979 1011.26 746.782 985.632 734.924 965.179H735.004Z" fill="#98DE61"/>
<path d="M219.867 938.44L332.238 743.86C337.729 734.39 337.729 722.612 332.238 713.141L237.694 549.28C232.202 539.73 222.095 533.921 211.113 533.921H-13.7881C-37.4242 533.921 -52.2266 559.547 -40.3688 579.999L166.706 938.44C178.564 958.893 208.089 958.893 219.947 938.44H219.867Z" fill="#98DE61"/>
</g>
</svg>
