<svg width="16" height="16" viewBox="0 0 16 16" fill="none" xmlns="http://www.w3.org/2000/svg">
<path d="M12.0165 0C9.82014 0 8.0332 1.78694 8.0332 3.98334C8.0332 6.17975 9.82014 7.96666 12.0165 7.96666C14.213 7.96666 15.9999 6.17975 15.9999 3.98334C15.9999 1.78694 14.213 0 12.0165 0ZM12.4853 0.973594C13.4685 1.12612 14.2977 1.75059 14.7334 2.60741L13.6579 2.95687L12.4853 2.10453V0.973594ZM13.0246 3.65556L12.6398 4.84159H11.3933L11.0085 3.65556L12.0166 2.92278L13.0246 3.65556ZM11.5478 0.973594V2.10453L10.3752 2.95687L9.2997 2.60741C9.73542 1.75056 10.5646 1.12609 11.5478 0.973594ZM9.86917 6.14125C9.31455 5.58931 8.97073 4.82575 8.97073 3.98334C8.97073 3.81847 8.98408 3.65666 9.00942 3.49881L10.0855 3.84847L10.533 5.22787L9.86917 6.14125ZM12.0165 7.02916C11.5163 7.02916 11.0438 6.90787 10.6269 6.69322L11.2914 5.77906H12.7418L13.4062 6.69322C12.9893 6.90787 12.5168 7.02916 12.0165 7.02916ZM14.164 6.14125L13.5001 5.22787L13.9476 3.84847L15.0237 3.49881C15.049 3.65666 15.0624 3.81847 15.0624 3.98334C15.0624 4.82575 14.7186 5.58931 14.164 6.14125Z" fill="#A4A4A3"/>
<path d="M10.1975 12.1403C9.41166 11.3204 8.23162 10.0888 6.92525 8.13194L6.91228 6.42741C6.91072 6.2255 6.78006 6.04722 6.58791 5.98503C6.36569 5.91309 6.13603 5.8875 5.91012 5.90691L5.45463 0.429906C5.43441 0.186906 5.23131 0 4.9875 0H0.46875C0.209875 0 0 0.209875 0 0.46875C0 2.80294 0.960437 4.29812 1.66178 5.38991C1.93684 5.81812 2.18272 6.201 2.279 6.50847C1.87322 6.76166 1.15525 7.2875 0.7055 8.06659C0.0800937 9.14962 0.015875 10.0919 0.0134687 10.1315C0.0025625 10.309 0.0930313 10.4773 0.247031 10.5662C0.247031 10.5662 0.341531 10.6207 0.508875 10.7173L0.358813 10.9778C0.229594 11.2021 0.306719 11.4887 0.531031 11.618C0.755375 11.7472 1.04197 11.6701 1.17119 11.4457L1.32084 11.186C1.57566 11.3331 1.86503 11.5001 2.17584 11.6795L2.02572 11.9401C1.8965 12.1644 1.97359 12.451 2.19794 12.5802C2.42222 12.7094 2.70887 12.6324 2.83809 12.408L2.98778 12.1482C3.822 12.6297 4.72503 13.151 5.50975 13.6041L5.35956 13.8648C5.23034 14.0891 5.30744 14.3757 5.53178 14.505C5.75606 14.6342 6.04272 14.5571 6.17194 14.3328L6.32166 14.0729C6.54172 14.2 6.74169 14.3155 6.91478 14.4155C7.00278 14.4662 7.09056 14.5144 7.17822 14.5611L7.02469 14.8259C6.89484 15.0499 6.97113 15.3367 7.19506 15.4666C7.419 15.5964 7.70581 15.5201 7.83572 15.2962L8.03288 14.9561C8.36678 15.0861 8.69281 15.1835 9.00613 15.2468L8.97713 15.2972C8.84791 15.5215 8.925 15.8081 9.14934 15.9373C9.37366 16.0666 9.66028 15.9895 9.7895 15.7652L10.0434 15.3244C10.6477 15.2773 11.095 15.0429 11.3257 14.6425C11.674 14.0391 11.3476 13.5182 11.2403 13.3469C11.0254 13.0041 10.6781 12.6417 10.1975 12.1403ZM5.31266 7.37969C5.37766 7.18037 5.51597 7.0185 5.70206 6.92387C5.78966 6.87934 5.88294 6.85206 5.97791 6.84237L5.98694 8.03103C5.79041 8.14659 5.44047 8.30912 5.00541 8.32716C5.11588 7.98719 5.24822 7.57956 5.31266 7.37969ZM0.952375 0.9375H4.55609L4.99916 6.26466C4.73022 6.47356 4.52931 6.758 4.42088 7.0905C4.35019 7.30978 4.19816 7.77791 4.08269 8.13319C4.03016 8.10812 3.97719 8.08044 3.92388 8.04962C3.16075 7.60928 3.2375 6.93212 3.25181 6.84047C3.26278 6.78872 3.26444 6.73697 3.25797 6.68687C3.23162 6.09937 2.86862 5.53403 2.45056 4.88322C1.82906 3.91572 1.06747 2.73019 0.952375 0.9375ZM0.991406 9.91337C1.05156 9.61209 1.19319 9.09681 1.51737 8.53534C1.75334 8.12666 2.09775 7.80006 2.39528 7.56937C2.51972 7.99466 2.80938 8.4889 3.45509 8.86147C4.18306 9.28212 4.98425 9.37828 5.77206 9.13966C5.98675 9.07459 6.17228 8.99331 6.32275 8.91509C6.62356 9.35515 6.91669 9.75728 7.19941 10.1261L3.21519 11.1969C2.25094 10.6404 1.40759 10.1536 0.991406 9.91337ZM10.5134 14.1741C10.4358 14.309 10.1276 14.4275 9.61406 14.3884C8.96759 14.3392 8.17534 14.0604 7.38344 13.6035C6.67456 13.194 5.51641 12.5254 4.36263 11.8593L7.83684 10.9256C8.49309 11.7167 9.06994 12.3187 9.52066 12.789C9.94603 13.2328 10.282 13.5833 10.4458 13.8447C10.58 14.0589 10.5463 14.1172 10.5134 14.1741Z" fill="#A4A4A3"/>
</svg>
