<svg width="6" height="11" viewBox="0 0 6 11" fill="none" xmlns="http://www.w3.org/2000/svg">
<path d="M5.841 7.075C5.841 8.109 5.06 8.901 3.63 9.055V10.144H2.684V9.055C1.485 8.945 0.66 8.428 0.286 8.109L1.111 7.097C1.43 7.383 2.167 7.933 3.168 7.933C4.004 7.933 4.455 7.614 4.455 7.097C4.455 5.491 0.616 6.316 0.616 3.786C0.616 2.708 1.43 1.861 2.684 1.696V0.607H3.63V1.685C5.192 1.861 5.654 2.895 5.786 3.533L4.532 3.841C4.499 3.445 4.103 2.829 3.179 2.829C2.453 2.829 2.002 3.17 2.002 3.72C2.002 5.117 5.841 4.358 5.841 7.075Z" fill="#FAFAFA"/>
</svg>
