<svg width="16" height="16" viewBox="0 0 16 16" fill="none" xmlns="http://www.w3.org/2000/svg">
<g clip-path="url(#clip0_357_2832)">
<path d="M15.5312 6.52706H12.8535C12.5946 6.52706 12.3847 6.73694 12.3847 6.99581V7.53125H11.5645V4.48541C11.5645 3.67325 10.9038 3.0125 10.0916 3.0125H9.80894V2.47709C9.80894 2.21822 9.59906 2.00834 9.34019 2.00834H6.66241C6.40353 2.00834 6.19366 2.21822 6.19366 2.47709V3.0125H5.37388V2.47709C5.37388 1.66494 4.71309 1.00419 3.90094 1.00419H3.61531V0.46875C3.61531 0.209875 3.40544 0 3.14656 0H0.46875C0.209875 0 0 0.209875 0 0.46875V2.47709C0 2.73597 0.209875 2.94584 0.46875 2.94584H3.14653C3.40541 2.94584 3.61528 2.73597 3.61528 2.47709V1.94169H3.90091C4.19613 1.94169 4.43634 2.18187 4.43634 2.47709V4.48544C4.43634 4.78066 4.19613 5.02087 3.90091 5.02087H3.61528V4.48544C3.61528 4.22656 3.40541 4.01669 3.14653 4.01669H0.46875C0.209875 4.01669 0 4.22656 0 4.48544V6.49375C0 6.75262 0.209875 6.9625 0.46875 6.9625H3.14653C3.40541 6.9625 3.61528 6.75262 3.61528 6.49375V5.95834H3.90091C4.71306 5.95834 5.37384 5.29756 5.37384 4.48541V3.95H6.19362V4.48541C6.19362 4.74428 6.4035 4.95416 6.66237 4.95416H9.34016C9.59903 4.95416 9.80891 4.74428 9.80891 4.48541V3.95H10.0916C10.3868 3.95 10.627 4.19019 10.627 4.48541V11.5146C10.627 11.8098 10.3868 12.05 10.0916 12.05H9.80891V11.5146C9.80891 11.2557 9.59903 11.0458 9.34016 11.0458H6.66237C6.4035 11.0458 6.19362 11.2557 6.19362 11.5146V12.05H5.37384V11.5146C5.37384 10.7024 4.71306 10.0417 3.90091 10.0417H3.61528V9.50625C3.61528 9.24738 3.40541 9.0375 3.14653 9.0375H0.46875C0.209875 9.0375 0 9.24738 0 9.50625V11.5146C0 11.7735 0.209875 11.9833 0.46875 11.9833H3.14653C3.40541 11.9833 3.61528 11.7735 3.61528 11.5146V10.9792H3.90091C4.19613 10.9792 4.43634 11.2194 4.43634 11.5146V13.5229C4.43634 13.8182 4.19613 14.0583 3.90091 14.0583H3.61528V13.5229C3.61528 13.2641 3.40541 13.0542 3.14653 13.0542H0.46875C0.209875 13.0542 0 13.2641 0 13.5229V15.5312C0 15.7901 0.209875 16 0.46875 16H3.14653C3.40541 16 3.61528 15.7901 3.61528 15.5312V14.9958H3.90091C4.71306 14.9958 5.37384 14.3351 5.37384 13.5229V12.9875H6.19362V13.5229C6.19362 13.7818 6.4035 13.9917 6.66237 13.9917H9.34016C9.59903 13.9917 9.80891 13.7818 9.80891 13.5229V12.9875H10.0916C10.9037 12.9875 11.5645 12.3268 11.5645 11.5146V8.46875H12.3847V9.00419C12.3847 9.26306 12.5946 9.47294 12.8534 9.47294H15.5312C15.7901 9.47294 16 9.26306 16 9.00419V6.99581C16 6.73694 15.7901 6.52706 15.5312 6.52706ZM2.67778 2.00834H0.9375V0.9375H2.67778V2.00834ZM2.67778 6.025H0.9375V4.95416H2.67778V6.025ZM8.87144 4.01666H7.13116V2.94584H8.87144V4.01666ZM2.67778 11.0458H0.9375V9.975H2.67778V11.0458ZM2.67778 15.0625H0.9375V13.9917H2.67778V15.0625ZM8.87144 13.0542H7.13116V11.9833H8.87144V13.0542ZM15.0625 8.53544H13.3222V7.46456H15.0625V8.53544Z" fill="#6CB632"/>
</g>
<defs>
<clipPath id="clip0_357_2832">
<rect width="16" height="16" fill="white"/>
</clipPath>
</defs>
</svg>
