<svg width="16" height="16" viewBox="0 0 16 16" fill="none" xmlns="http://www.w3.org/2000/svg">
<path d="M12.0167 8.03334C10.8978 8.03334 9.88534 8.49725 9.16109 9.24259L7.45616 0.380281C7.41372 0.159531 7.22059 0 6.99581 0H5.48959C5.26484 0 5.07169 0.159531 5.02928 0.380281L2.59188 13.0542H2.47709C1.11122 13.0542 0 14.1654 0 15.5312C0 15.7901 0.209875 16 0.46875 16H12.0167C14.2131 16 16 14.2131 16 12.0167C16 9.82025 14.2131 8.03334 12.0167 8.03334ZM12.4854 9.00691C13.4686 9.15944 14.2978 9.78391 14.7335 10.6407L13.658 10.9902L12.4854 10.1378V9.00691ZM13.0247 11.6889L12.6399 12.8749H11.3934L11.0087 11.6889L12.0167 10.9561L13.0247 11.6889ZM11.5479 9.00691V10.1378L10.3753 10.9902L9.29981 10.6407C9.73553 9.78391 10.5647 9.15944 11.5479 9.00691ZM9.86928 14.1746C9.31466 13.6227 8.97084 12.8591 8.97084 12.0167C8.97084 11.8518 8.98419 11.69 9.00953 11.5322L10.0856 11.8818L10.5331 13.2612L9.86928 14.1746ZM5.87684 0.9375H6.60859L7.97234 8.03331H4.51309L5.87684 0.9375ZM4.33262 8.97081H8.15291L8.4135 10.3196C8.37872 10.3931 8.34606 10.4678 8.31572 10.5437H4.02906L4.33262 8.97081ZM3.84847 11.4812H8.06944C8.04578 11.6564 8.03334 11.8351 8.03334 12.0167C8.03334 12.3755 8.08131 12.7232 8.17069 13.0542H3.54647L3.84847 11.4812ZM1.01044 15.0625C1.20919 14.4421 1.79153 13.9917 2.47709 13.9917H8.55841C8.79203 14.3992 9.09572 14.7615 9.45272 15.0625H1.01044ZM12.0167 15.0625C11.5164 15.0625 11.0439 14.9412 10.627 14.7266L11.2915 13.8124H12.7419L13.4063 14.7266C12.9894 14.9412 12.5169 15.0625 12.0167 15.0625ZM14.1641 14.1746L13.5002 13.2612L13.9477 11.8818L15.0238 11.5322C15.0491 11.69 15.0625 11.8518 15.0625 12.0167C15.0625 12.8591 14.7187 13.6227 14.1641 14.1746Z" fill="#A4A4A3"/>
</svg>
