<svg width="16" height="16" viewBox="0 0 16 16" fill="none" xmlns="http://www.w3.org/2000/svg">
<path d="M14.0855 7.74897C14.0855 6.19616 13.5155 4.77406 12.5739 3.68059L12.9911 3.26406L13.1928 3.46531C13.376 3.64816 13.6728 3.648 13.8557 3.46469C14.0386 3.28147 14.0383 2.98466 13.855 2.80178L12.7881 1.73688C12.6048 1.55394 12.3081 1.55422 12.1252 1.7375C11.9423 1.92072 11.9426 2.21753 12.1258 2.40041L12.3276 2.60178L11.9109 3.01772C10.9285 2.17184 9.68094 1.62594 8.31157 1.52381V0.9375H8.59594C8.85482 0.9375 9.06469 0.727625 9.06469 0.46875C9.06469 0.209875 8.85482 0 8.59594 0H7.08969C6.83082 0 6.62094 0.209875 6.62094 0.46875C6.62094 0.727625 6.83082 0.9375 7.08969 0.9375H7.37407V1.52381C6.00469 1.62597 4.7571 2.17184 3.77469 3.01772L3.35807 2.60178L3.55982 2.40041C3.74304 2.21753 3.74332 1.92072 3.56044 1.7375C3.37757 1.55428 3.08072 1.55397 2.89754 1.73688L1.8306 2.80178C1.64738 2.98466 1.6471 3.28147 1.82997 3.46469C2.01279 3.64788 2.30963 3.64825 2.49288 3.46531L2.6945 3.26406L3.11175 3.68059C2.17013 4.77406 1.6001 6.19616 1.6001 7.74897C1.6001 10.7423 3.71794 13.2499 6.53375 13.8532C6.42925 14.0553 6.36985 14.2843 6.36985 14.5271C6.36988 15.3392 7.03066 16 7.84282 16C8.65497 16 9.31575 15.3392 9.31575 14.5271C9.31575 14.2843 9.25635 14.0553 9.15185 13.8532C11.9677 13.2499 14.0855 10.7423 14.0855 7.74897ZM7.84282 15.0625C7.5476 15.0625 7.30738 14.8223 7.30738 14.5271C7.30738 14.2318 7.5476 13.9917 7.84282 13.9917C8.13804 13.9917 8.37825 14.2318 8.37825 14.5271C8.37825 14.8223 8.13804 15.0625 7.84282 15.0625ZM7.84282 13.0542C4.91754 13.0542 2.5376 10.6742 2.5376 7.74894C2.5376 4.82363 4.91754 2.44375 7.84282 2.44375C10.7681 2.44375 13.148 4.82366 13.148 7.74897C13.148 10.6743 10.7681 13.0542 7.84282 13.0542Z" fill="#A4A4A3"/>
<path d="M5.96484 4.95413H9.72041C9.97928 4.95413 10.1892 4.74426 10.1892 4.48538C10.1892 4.22651 9.97928 4.01663 9.72041 4.01663H5.96484C5.70597 4.01663 5.49609 4.22651 5.49609 4.48538C5.49609 4.74426 5.70597 4.95413 5.96484 4.95413Z" fill="#A4A4A3"/>
<path d="M9.72041 10.5437H5.96484C5.70597 10.5437 5.49609 10.7536 5.49609 11.0125C5.49609 11.2714 5.70597 11.4812 5.96484 11.4812H9.72041C9.97928 11.4812 10.1892 11.2714 10.1892 11.0125C10.1892 10.7536 9.97928 10.5437 9.72041 10.5437Z" fill="#A4A4A3"/>
<path d="M11.3926 6.025H4.29053C4.03165 6.025 3.82178 6.23488 3.82178 6.49375V9.00419C3.82178 9.26306 4.03165 9.47294 4.29053 9.47294H11.3926C11.6514 9.47294 11.8613 9.26306 11.8613 9.00419V6.49375C11.8613 6.23488 11.6514 6.025 11.3926 6.025ZM10.9238 8.53544H4.75928V6.9625H10.9238V8.53544Z" fill="#A4A4A3"/>
</svg>
