<svg width="20" height="20" viewBox="0 0 20 20" fill="none" xmlns="http://www.w3.org/2000/svg">
<path d="M3.85 15.0999C4.7 14.4499 5.65 13.9374 6.7 13.5624C7.75 13.1874 8.85 12.9999 10 12.9999C11.15 12.9999 12.25 13.1874 13.3 13.5624C14.35 13.9374 15.3 14.4499 16.15 15.0999C16.7333 14.4166 17.1875 13.6416 17.5125 12.7749C17.8375 11.9083 18 10.9833 18 9.99994C18 7.78327 17.2208 5.89577 15.6625 4.33744C14.1042 2.77911 12.2167 1.99994 10 1.99994C7.78333 1.99994 5.89583 2.77911 4.3375 4.33744C2.77917 5.89577 2 7.78327 2 9.99994C2 10.9833 2.1625 11.9083 2.4875 12.7749C2.8125 13.6416 3.26667 14.4166 3.85 15.0999ZM10 10.9999C9.01667 10.9999 8.1875 10.6624 7.5125 9.98744C6.8375 9.31244 6.5 8.48327 6.5 7.49994C6.5 6.51661 6.8375 5.68744 7.5125 5.01244C8.1875 4.33744 9.01667 3.99994 10 3.99994C10.9833 3.99994 11.8125 4.33744 12.4875 5.01244C13.1625 5.68744 13.5 6.51661 13.5 7.49994C13.5 8.48327 13.1625 9.31244 12.4875 9.98744C11.8125 10.6624 10.9833 10.9999 10 10.9999ZM10 19.9999C8.61667 19.9999 7.31667 19.7374 6.1 19.2124C4.88333 18.6874 3.825 17.9749 2.925 17.0749C2.025 16.1749 1.3125 15.1166 0.7875 13.8999C0.2625 12.6833 0 11.3833 0 9.99994C0 8.61661 0.2625 7.31661 0.7875 6.09994C1.3125 4.88327 2.025 3.82494 2.925 2.92494C3.825 2.02494 4.88333 1.31244 6.1 0.787439C7.31667 0.262439 8.61667 -6.10352e-05 10 -6.10352e-05C11.3833 -6.10352e-05 12.6833 0.262439 13.9 0.787439C15.1167 1.31244 16.175 2.02494 17.075 2.92494C17.975 3.82494 18.6875 4.88327 19.2125 6.09994C19.7375 7.31661 20 8.61661 20 9.99994C20 11.3833 19.7375 12.6833 19.2125 13.8999C18.6875 15.1166 17.975 16.1749 17.075 17.0749C16.175 17.9749 15.1167 18.6874 13.9 19.2124C12.6833 19.7374 11.3833 19.9999 10 19.9999Z" fill="#1C1B1F"/>
</svg>
