<svg width="20" height="20" viewBox="0 0 20 20" fill="none" xmlns="http://www.w3.org/2000/svg">
<path d="M6 14H18V11H15.45C15.1 11.6167 14.6167 12.1042 14 12.4625C13.3833 12.8208 12.7167 13 12 13C11.3 13 10.6417 12.8208 10.025 12.4625C9.40833 12.1042 8.91667 11.6167 8.55 11H6V14ZM12 11C12.5667 11 13.0417 10.8042 13.425 10.4125C13.8083 10.0208 14 9.55 14 9H18V2H6V9H10C10 9.55 10.1958 10.0208 10.5875 10.4125C10.9792 10.8042 11.45 11 12 11ZM6 16C5.45 16 4.97917 15.8042 4.5875 15.4125C4.19583 15.0208 4 14.55 4 14V2C4 1.45 4.19583 0.979167 4.5875 0.5875C4.97917 0.195833 5.45 0 6 0H18C18.55 0 19.0208 0.195833 19.4125 0.5875C19.8042 0.979167 20 1.45 20 2V14C20 14.55 19.8042 15.0208 19.4125 15.4125C19.0208 15.8042 18.55 16 18 16H6ZM2 20C1.45 20 0.979167 19.8042 0.5875 19.4125C0.195833 19.0208 0 18.55 0 18V4H2V18H16V20H2Z" fill="#1C1B1F"/>
</svg>
