<svg width="18" height="18" viewBox="0 0 18 18" fill="none" xmlns="http://www.w3.org/2000/svg">
<path d="M2 18C1.45 18 0.979167 17.8042 0.5875 17.4125C0.195833 17.0208 0 16.55 0 16V2C0 1.45 0.195833 0.979167 0.5875 0.5875C0.979167 0.195833 1.45 0 2 0H16C16.55 0 17.0208 0.195833 17.4125 0.5875C17.8042 0.979167 18 1.45 18 2V16C18 16.55 17.8042 17.0208 17.4125 17.4125C17.0208 17.8042 16.55 18 16 18H2ZM9 13C9.63333 13 10.2083 12.8167 10.725 12.45C11.2417 12.0833 11.6 11.6 11.8 11H16V2H2V11H6.2C6.4 11.6 6.75833 12.0833 7.275 12.45C7.79167 12.8167 8.36667 13 9 13Z" fill="#1C1B1F"/>
</svg>
