<svg width="22" height="22" viewBox="0 0 22 22" fill="none" xmlns="http://www.w3.org/2000/svg">
<path d="M10 22V20C7.91672 19.7666 6.12922 18.9041 4.63755 17.4125C3.14588 15.9208 2.28338 14.1333 2.05005 12.05H0.0500488V10.05H2.05005C2.28338 7.96664 3.14588 6.17914 4.63755 4.68748C6.12922 3.19581 7.91672 2.33331 10 2.09998V0.0999756H12V2.09998C14.0834 2.33331 15.8709 3.19581 17.3625 4.68748C18.8542 6.17914 19.7167 7.96664 19.95 10.05H21.95V12.05H19.95C19.7167 14.1333 18.8542 15.9208 17.3625 17.4125C15.8709 18.9041 14.0834 19.7666 12 20V22H10ZM11 18.05C12.9334 18.05 14.5834 17.3666 15.95 16C17.3167 14.6333 18 12.9833 18 11.05C18 9.11664 17.3167 7.46664 15.95 6.09998C14.5834 4.73331 12.9334 4.04998 11 4.04998C9.06672 4.04998 7.41672 4.73331 6.05005 6.09998C4.68338 7.46664 4.00005 9.11664 4.00005 11.05C4.00005 12.9833 4.68338 14.6333 6.05005 16C7.41672 17.3666 9.06672 18.05 11 18.05Z" fill="#1C1B1F"/>
</svg>
