<svg width="19" height="19" viewBox="0 0 19 19" fill="none" xmlns="http://www.w3.org/2000/svg">
<path d="M8 8C8.55 8 9.02083 7.80417 9.4125 7.4125C9.80417 7.02083 10 6.55 10 6C10 5.45 9.80417 4.97917 9.4125 4.5875C9.02083 4.19583 8.55 4 8 4C7.45 4 6.97917 4.19583 6.5875 4.5875C6.19583 4.97917 6 5.45 6 6C6 6.55 6.19583 7.02083 6.5875 7.4125C6.97917 7.80417 7.45 8 8 8ZM8 12C8.75 12 9.45417 11.8417 10.1125 11.525C10.7708 11.2083 11.3417 10.7583 11.825 10.175C11.2417 9.79167 10.6292 9.5 9.9875 9.3C9.34583 9.1 8.68333 9 8 9C7.31667 9 6.65417 9.1 6.0125 9.3C5.37083 9.5 4.75833 9.79167 4.175 10.175C4.65833 10.7583 5.22917 11.2083 5.8875 11.525C6.54583 11.8417 7.25 12 8 12ZM17.6 19L12.9 14.3C12.2167 14.8333 11.4625 15.25 10.6375 15.55C9.8125 15.85 8.93333 16 8 16C5.76667 16 3.875 15.225 2.325 13.675C0.775 12.125 0 10.2333 0 8C0 5.76667 0.775 3.875 2.325 2.325C3.875 0.775 5.76667 0 8 0C10.2333 0 12.125 0.775 13.675 2.325C15.225 3.875 16 5.76667 16 8C16 8.93333 15.85 9.8125 15.55 10.6375C15.25 11.4625 14.8333 12.2167 14.3 12.9L19 17.6L17.6 19ZM8 14C9.66667 14 11.0833 13.4167 12.25 12.25C13.4167 11.0833 14 9.66667 14 8C14 6.33333 13.4167 4.91667 12.25 3.75C11.0833 2.58333 9.66667 2 8 2C6.33333 2 4.91667 2.58333 3.75 3.75C2.58333 4.91667 2 6.33333 2 8C2 9.66667 2.58333 11.0833 3.75 12.25C4.91667 13.4167 6.33333 14 8 14Z" fill="#1C1B1F"/>
</svg>
