<svg width="16" height="20" viewBox="0 0 16 20" fill="none" xmlns="http://www.w3.org/2000/svg">
<path d="M8 11C8.96667 11 9.79167 10.6583 10.475 9.975C11.1583 9.29167 11.5 8.46667 11.5 7.5C11.5 6.53333 11.1583 5.70833 10.475 5.025C9.79167 4.34167 8.96667 4 8 4C7.03333 4 6.20833 4.34167 5.525 5.025C4.84167 5.70833 4.5 6.53333 4.5 7.5C4.5 8.46667 4.84167 9.29167 5.525 9.975C6.20833 10.6583 7.03333 11 8 11ZM8 20C5.56667 19.3833 3.625 18.05 2.175 16C0.725 13.95 0 11.65 0 9.1V3L8 0L16 3V9.1C16 11.65 15.275 13.95 13.825 16C12.375 18.05 10.4333 19.3833 8 20ZM8 17.9C8.98333 17.5833 9.85417 17.0875 10.6125 16.4125C11.3708 15.7375 12.0333 14.975 12.6 14.125C11.8833 13.7583 11.1375 13.4792 10.3625 13.2875C9.5875 13.0958 8.8 13 8 13C7.2 13 6.4125 13.0958 5.6375 13.2875C4.8625 13.4792 4.11667 13.7583 3.4 14.125C3.96667 14.975 4.62917 15.7375 5.3875 16.4125C6.14583 17.0875 7.01667 17.5833 8 17.9Z" fill="#1C1B1F"/>
</svg>
