<svg width="20" height="20" viewBox="0 0 20 20" fill="none" xmlns="http://www.w3.org/2000/svg">
<path d="M1 5V1L5 3L1 5ZM16 5V1L20 3L16 5ZM9 4V0L13 2L9 4ZM9 20C7.73333 19.9667 6.55417 19.8625 5.4625 19.6875C4.37083 19.5125 3.42083 19.2917 2.6125 19.025C1.80417 18.7583 1.16667 18.45 0.7 18.1C0.233333 17.75 0 17.3833 0 17V8C0 7.58333 0.2625 7.19583 0.7875 6.8375C1.3125 6.47917 2.025 6.1625 2.925 5.8875C3.825 5.6125 4.88333 5.39583 6.1 5.2375C7.31667 5.07917 8.61667 5 10 5C11.3833 5 12.6833 5.07917 13.9 5.2375C15.1167 5.39583 16.175 5.6125 17.075 5.8875C17.975 6.1625 18.6875 6.47917 19.2125 6.8375C19.7375 7.19583 20 7.58333 20 8V17C20 17.3833 19.7667 17.75 19.3 18.1C18.8333 18.45 18.1958 18.7583 17.3875 19.025C16.5792 19.2917 15.6292 19.5125 14.5375 19.6875C13.4458 19.8625 12.2667 19.9667 11 20V16H9V20ZM10 9C11.6167 9 13.0125 8.90417 14.1875 8.7125C15.3625 8.52083 16.3 8.3 17 8.05C17 7.96667 16.3667 7.77083 15.1 7.4625C13.8333 7.15417 12.1333 7 10 7C7.86667 7 6.16667 7.15417 4.9 7.4625C3.63333 7.77083 3 7.96667 3 8.05C3.7 8.3 4.6375 8.52083 5.8125 8.7125C6.9875 8.90417 8.38333 9 10 9ZM7 17.85V14H13V17.85C14.3333 17.7167 15.425 17.5208 16.275 17.2625C17.125 17.0042 17.7 16.775 18 16.575V9.8C17.0833 10.1667 15.9333 10.4583 14.55 10.675C13.1667 10.8917 11.65 11 10 11C8.35 11 6.83333 10.8917 5.45 10.675C4.06667 10.4583 2.91667 10.1667 2 9.8V16.575C2.3 16.775 2.875 17.0042 3.725 17.2625C4.575 17.5208 5.66667 17.7167 7 17.85Z" fill="#1C1B1F"/>
</svg>
