<svg width="20" height="20" viewBox="0 0 20 20" fill="none" xmlns="http://www.w3.org/2000/svg">
<path d="M1 5V1L5 3L1 5ZM16 5V1L20 3L16 5ZM9 4V0L13 2L9 4ZM7 19.875C6.13333 19.7917 5.28333 19.6667 4.45 19.5C3.61667 19.3333 2.87083 19.1292 2.2125 18.8875C1.55417 18.6458 1.02083 18.3667 0.6125 18.05C0.204167 17.7333 0 17.3833 0 17V8C0 7.58333 0.2625 7.19583 0.7875 6.8375C1.3125 6.47917 2.025 6.1625 2.925 5.8875C3.825 5.6125 4.88333 5.39583 6.1 5.2375C7.31667 5.07917 8.61667 5 10 5C11.3833 5 12.6833 5.07917 13.9 5.2375C15.1167 5.39583 16.175 5.6125 17.075 5.8875C17.975 6.1625 18.6875 6.47917 19.2125 6.8375C19.7375 7.19583 20 7.58333 20 8V17C20 17.3833 19.7958 17.7333 19.3875 18.05C18.9792 18.3667 18.4458 18.6458 17.7875 18.8875C17.1292 19.1292 16.3833 19.3333 15.55 19.5C14.7167 19.6667 13.8667 19.7917 13 19.875V15H7V19.875ZM10 9C11.6167 9 13.0125 8.90417 14.1875 8.7125C15.3625 8.52083 16.3 8.3 17 8.05C17 7.96667 16.3667 7.77083 15.1 7.4625C13.8333 7.15417 12.1333 7 10 7C7.86667 7 6.16667 7.15417 4.9 7.4625C3.63333 7.77083 3 7.96667 3 8.05C3.7 8.3 4.6375 8.52083 5.8125 8.7125C6.9875 8.90417 8.38333 9 10 9Z" fill="#1C1B1F"/>
</svg>
